<svg width="16" height="28" viewBox="0 0 16 28" fill="none" xmlns="http://www.w3.org/2000/svg">
<path d="M9.00088 1.00003C9.0009 0.44775 8.5532 1.90493e-05 8.00091 0C7.44863 -1.90493e-05 7.0009 0.447681 7.00088 0.999965L9.00088 1.00003ZM7.29285 27.7071C7.68336 28.0976 8.31652 28.0976 8.70706 27.7071L15.0712 21.3434C15.4618 20.9529 15.4618 20.3197 15.0713 19.9292C14.6808 19.5386 14.0476 19.5386 13.6571 19.9291L8.00003 25.5858L2.34337 19.9287C1.95286 19.5382 1.31969 19.5382 0.929155 19.9287C0.538618 20.3192 0.538596 20.9524 0.929107 21.3429L7.29285 27.7071ZM7.00088 0.999965L6.99998 27L8.99998 27L9.00088 1.00003L7.00088 0.999965Z" fill="#777777"/>
</svg>
