<svg id="Layer_2" data-name="Layer 2" xmlns="http://www.w3.org/2000/svg" viewBox="0 0 420 420"><defs><style>.cls-1{fill:#383838;}.cls-2{fill:none;stroke:#383838;stroke-linecap:round;stroke-linejoin:round;stroke-width:2.81px;}</style></defs><path class="cls-1" d="M177,240.58c-8.37,0-16.74.06-25.1-.05-1.94,0-2.77.57-3.34,2.43-3.21,10.3-6.64,20.53-9.81,30.85-.91,3-2.33,4.3-5.62,4.22-8-.21-16.1-.07-24.15-.07-4.24,0-4.6-.46-3.25-4.34Q129.1,206.3,152.51,139c1.82-5.24,3.25-10.53,3.23-16.09,0-2.32,1-2.84,3.07-2.83q18,.11,35.91,0c2.07,0,3,.74,3.66,2.62Q225.15,198.4,252,274.08c1.2,3.4.85,3.87-2.77,3.87-9.42,0-18.85,0-28.28,0-2.25,0-3.42-.74-4.16-2.94-3.56-10.64-7.33-21.2-10.88-31.83-.69-2.07-1.63-2.74-3.82-2.7C193.74,240.66,185.37,240.58,177,240.58Zm-.3-91.8c-.7,2.86-1.32,5.75-2.13,8.58-4.79,16.68-9.89,33.27-15.51,49.69-.9,2.65-.38,3.14,2.27,3.1q15.9-.18,31.79,0c2.3,0,2.95-.39,2.13-2.74-1.6-4.59-3-9.26-4.45-13.9C186.09,178.63,181.22,163.78,176.7,148.78Z"/><path class="cls-1" d="M268.35,218c0-18.64,0-37.29-.06-55.93,0-3,.73-4.14,3.9-4.07,8.69.19,17.38.15,26.07,0,2.77-.05,3.72.92,3.72,3.67q-.09,56.26,0,112.51c0,2.6-.74,3.85-3.64,3.81q-13.2-.21-26.39,0c-2.81,0-3.65-1-3.63-3.75C268.39,255.5,268.35,236.75,268.35,218Z"/><path class="cls-1" d="M285.68,108.07c11.24,0,18.39,7.24,18.39,18.53s-7.71,19.1-19.17,19.07c-10.9,0-18.39-7.87-18.33-19.18C266.62,115.61,274.48,108,285.68,108.07Z"/><path class="cls-2" d="M209.89,381.42q-55.8,0-111.59,0c-28.5,0-51.79-16.19-60.8-42A65.72,65.72,0,0,1,34,317.58q0-107.74,0-215.49c0-34.13,24.09-60.42,58.07-63.5,1.26-.11,2.53-.11,3.81-.11H323.21A62.49,62.49,0,0,1,386,101.29q0,108.71,0,217.4c0,33.83-26.53,61.75-60.39,62.49-28.7.62-57.42.2-86.14.24Z"/></svg>