<svg id="Layer_2" data-name="Layer 2" xmlns="http://www.w3.org/2000/svg" viewBox="0 0 420 420"><defs><style>.cls-1{fill:#fff;}</style></defs><path class="cls-1" d="M377.18,308.84a10,10,0,0,1,.94,13.09,187.52,187.52,0,0,1-150.56,75.74C97,397.67-2.8,263.72,58.3,126.06a167.76,167.76,0,0,1,84.61-85c82.31-36.87,163.4-16.12,215.38,34.42l1,1c10.85,10.92,15.53,24,12.9,36.43a31.83,31.83,0,0,1-1.38,4.7A30.26,30.26,0,0,1,350.72,136a34.35,34.35,0,0,1-9.54,1.36c-10.08,0-20.6-4.34-30.28-12.58q-2.25-2.19-4.6-4.28l-.06,0c-34.09-30-85.39-40.86-137-15.7a103,103,0,0,0-47.71,48.53c-42,88.67,22,176,106,176a118.5,118.5,0,0,0,62.66-17.82,120.11,120.11,0,0,0,36.83-35.75,10,10,0,0,1,15.42-1.58h0a10,10,0,0,1,1.3,12.55,139.21,139.21,0,0,1-116.21,62.6c-77.19,0-139.91-63.11-139.28-140.44.62-75.63,62.3-137.39,137.92-138.11a138.73,138.73,0,0,1,98,39.07c7.36,6.14,14.93,8.72,20.89,7a10.44,10.44,0,0,0,7.5-8.06c1.18-5.59-1.61-12.22-7.55-18.21l-.26-.25c-.78-.78-1.61-1.54-2.49-2.29l.06-.07C296,44.3,224.93,26.72,152.71,58.72a150.2,150.2,0,0,0-76.47,76.53C21.86,258.14,111,377.67,227.56,377.67a166.71,166.71,0,0,0,81.59-21.22,169,169,0,0,0,53-46.52,10,10,0,0,1,15.07-1.09Z"/></svg>