<svg id="Layer_2" data-name="Layer 2" xmlns="http://www.w3.org/2000/svg" viewBox="0 0 420 420"><defs><style>.cls-1{fill:#4a4a4a;}.cls-2{fill:#332a2e;}.cls-3,.cls-5{fill:#fff;}.cls-4{fill:none;stroke:#332a2e;stroke-width:4.58px;}.cls-4,.cls-5{stroke-miterlimit:10;}.cls-5{stroke:#e74040;stroke-width:1.25px;}.cls-6{fill:#e74040;}</style></defs><rect class="cls-1" x="54.31" y="32.65" width="231.91" height="318.61" rx="8.63"/><rect class="cls-2" x="91.34" y="68.75" width="231.91" height="318.61" rx="8.63"/><rect class="cls-1" x="97.7" y="75.62" width="219.19" height="304.87" rx="5.47"/><rect class="cls-3" x="114.44" y="91.01" width="185.69" height="275.23" rx="6.49"/><rect class="cls-4" x="153.3" y="71.42" width="107.98" height="32.43" rx="5.67"/><rect class="cls-5" x="138.54" y="137.94" width="11.57" height="11.57" rx="1.88"/><rect class="cls-6" x="160.04" y="137.94" width="115.99" height="7.5" rx="3.75"/><rect class="cls-6" x="160.04" y="150.72" width="115.99" height="7.5" rx="3.75"/><rect class="cls-6" x="160.04" y="163.5" width="115.99" height="7.5" rx="3.75"/><rect class="cls-5" x="138.54" y="193.73" width="11.57" height="11.57" rx="1.88"/><rect class="cls-6" x="160.04" y="193.73" width="115.99" height="7.5" rx="3.75"/><rect class="cls-6" x="160.04" y="206.51" width="115.99" height="7.5" rx="3.75"/><rect class="cls-6" x="160.04" y="219.29" width="115.99" height="7.5" rx="3.75"/><rect class="cls-5" x="138.54" y="249.52" width="11.57" height="11.57" rx="1.88"/><rect class="cls-6" x="160.04" y="249.52" width="115.99" height="7.5" rx="3.75"/><rect class="cls-6" x="160.04" y="262.31" width="115.99" height="7.5" rx="3.75"/><rect class="cls-6" x="160.04" y="275.09" width="115.99" height="7.5" rx="3.75"/><rect class="cls-5" x="138.54" y="305.32" width="11.57" height="11.57" rx="1.88"/><rect class="cls-6" x="160.04" y="305.32" width="115.99" height="7.5" rx="3.75"/><rect class="cls-6" x="160.04" y="318.1" width="115.99" height="7.5" rx="3.75"/><rect class="cls-6" x="160.04" y="330.88" width="115.99" height="7.5" rx="3.75"/><path class="cls-1" d="M264.64,291.55l88.29-125.67a3,3,0,0,1,2.42-1.25,2.91,2.91,0,0,1,1.7.54l8,5.59a3,3,0,0,1,.72,4.12L277.44,300.54Z"/><path class="cls-3" d="M355.35,165.2a2.41,2.41,0,0,1,1.37.43l8,5.6a2.38,2.38,0,0,1,.58,3.32l-88,125.2-11.86-8.34,87.95-125.2a2.4,2.4,0,0,1,2-1m0-1.14a3.53,3.53,0,0,0-2.89,1.5l-88,125.19-.66.94.94.66,11.86,8.33.94.66.66-.94,87.95-125.19a3.45,3.45,0,0,0,.59-2.64,3.48,3.48,0,0,0-1.44-2.28l-8-5.59a3.46,3.46,0,0,0-2-.64Z"/><rect class="cls-2" x="345.09" y="179.05" width="14.5" height="2.54" transform="translate(536.99 530.42) rotate(-144.91)"/><path class="cls-2" d="M262.27,310.28a1.8,1.8,0,0,1-1.39-.68,1.76,1.76,0,0,1-.3-1.49l4.3-16.84a.6.6,0,0,1,.36-.4.64.64,0,0,1,.2,0,.53.53,0,0,1,.32.1l11.87,8.34a.58.58,0,0,1,.24.47.56.56,0,0,1-.25.47L263.24,310a1.72,1.72,0,0,1-1,.31Z"/><path class="cls-3" d="M265.44,291.41l11.86,8.34-14.38,9.75a1.16,1.16,0,0,1-1.78-1.25l4.3-16.84m0-1.14a1.09,1.09,0,0,0-.4.07,1.13,1.13,0,0,0-.71.79L260,308a2.32,2.32,0,0,0,.4,2,2.37,2.37,0,0,0,1.84.9,2.31,2.31,0,0,0,1.29-.4l14.38-9.76a1.15,1.15,0,0,0,0-1.88l-11.87-8.34a1.16,1.16,0,0,0-.65-.2Z"/><path class="cls-6" d="M263.05,301.08a.93.93,0,0,1,.72.17c1.17.82-.41,3.06.75,3.88s2.7-1.46,3.86-.64a1.08,1.08,0,0,1,.4,1.11L263,309.54a1.14,1.14,0,0,1-1.76-1.24Z"/><rect class="cls-2" x="309.2" y="168.68" width="4.58" height="139.59" transform="translate(429.28 612.66) rotate(-144.91)"/></svg>