<svg id="Layer_2" data-name="Layer 2" xmlns="http://www.w3.org/2000/svg" viewBox="0 0 420 420"><defs><style>.cls-1{fill:none;stroke:#383838;stroke-linecap:round;stroke-linejoin:round;stroke-width:2.81px;}.cls-2{fill:#383838;}</style></defs><path class="cls-1" d="M209.89,381.42q-55.8,0-111.59,0c-28.5,0-51.79-16.19-60.8-42A65.72,65.72,0,0,1,34,317.58q0-107.74,0-215.49c0-34.13,24.09-60.42,58.07-63.5,1.26-.11,2.53-.11,3.81-.11H323.21A62.49,62.49,0,0,1,386,101.29q0,108.71,0,217.4c0,33.83-26.53,61.75-60.39,62.49-28.7.62-57.42.2-86.14.24Z"/><path class="cls-2" d="M209.42,332.33c-11.21-3.3-22.4-6.67-33.63-9.87q-16.14-4.59-32.37-8.85c-3-.81-4.3-2.28-4.58-5.59-2.32-27.75-4.88-55.48-7.34-83.22q-3.87-43.5-7.67-87c0-.3.22-.64.44-1.22H296.1c-.82,9.62-1.59,18.94-2.42,28.26q-2.51,28.38-5.05,56.74c-1.65,18.19-3.35,36.38-5,54.57-.91,10.09-2,20.17-2.47,30.28-.2,4.32-1.43,6.28-5.77,7.43C254.65,319.35,234,325.23,213.31,331a17.38,17.38,0,0,0-2.8,1.32Zm-29.48-138c10.47,0,20.19,0,29.92,0,16.13,0,32.25.15,48.38,0,1.59,0,4.33-1.66,4.53-2.86,1-6.37,1.4-12.85,2-19.72h-109c-.32.89-.58,1.24-.55,1.57,1.75,20.17,3.56,40.34,5.26,60.52.28,3.32,1.88,4.13,5,4.1,13.05-.13,26.09-.06,39.14,0h31.35c-.54,5.68-.85,10.7-1.51,15.66-1.6,12-1.64,12.16-13.45,15.13-4.66,1.17-9.6,2.58-14.24,2.14-5.84-.56-11.47-3.1-17.27-4.42-3.15-.71-3.84-2.31-3.91-5.28-.08-4.24-.79-8.48-1.22-12.54H162.08c.91,10.9,1.68,21.33,2.81,31.72.13,1.21,2.09,2.8,3.5,3.21q19.49,5.72,39.11,11a10.53,10.53,0,0,0,5.23,0c12.87-3.48,25.74-7,38.5-10.85a6.71,6.71,0,0,0,3.94-4.56c1.69-15.44,3-30.92,4.4-46.39.49-5.54.78-11.1,1.21-17.32H181.62C181,208.17,180.52,201.59,179.94,194.33Z"/><path class="cls-2" d="M248.58,87.67V120H237.91V104.69c-3.11,4.36-5.3,7.44-7.84,11L222.75,105V120H211.59V87.67h12l6.74,12.2,6.31-12.2Z"/><path class="cls-2" d="M171.35,87.67V120H160.56V109.78h-9.68V120H139.8V87.67h10.88V98.24h9.79V87.67Z"/><path class="cls-2" d="M207.24,87.67l-.87,10.64-9.16.44V120H186.44V98.83l-9.65-.47V87.67Z"/><path class="cls-2" d="M264.89,87.67V109.8h15.56v10.32H254V87.67Z"/></svg>