<svg id="Layer_2" data-name="Layer 2" xmlns="http://www.w3.org/2000/svg" viewBox="0 0 420 420"><defs><style>.cls-1,.cls-2,.cls-3{fill:none;stroke:#383838;stroke-linecap:round;stroke-linejoin:round;}.cls-1{stroke-width:2.29px;}.cls-2{stroke-width:2.33px;}.cls-3{stroke-width:2.34px;}</style></defs><path class="cls-1" d="M284.51,66.33V281.42a7.28,7.28,0,0,1-3.64,6.3L151,362.55a7.26,7.26,0,0,1-9.24-1.67,7.19,7.19,0,0,1-1.66-4.63V141.16a7.28,7.28,0,0,1,3.64-6.3l38.66-22.28a33.79,33.79,0,0,0-2.52,12.82v8.2l64.82-37.35V90.46c0-.23,0-.45,0-.68a12.53,12.53,0,0,0-5.61-9.86L273.61,60a7.18,7.18,0,0,1,4.61-.91A7.27,7.27,0,0,1,284.51,66.33Z"/><path class="cls-1" d="M187,104.68a33.85,33.85,0,0,0-4.58,7.9l-38.66,22.28a7.28,7.28,0,0,0-3.64,6.3V356.25a7.19,7.19,0,0,0,1.66,4.63,7.27,7.27,0,0,1-6.3-7.22V138.57a7.28,7.28,0,0,1,3.64-6.3Z"/><path class="cls-1" d="M278.22,59.12a7.18,7.18,0,0,0-4.61.91L239.1,79.92a12.66,12.66,0,0,0-5.54-2.07L269,57.44A7.26,7.26,0,0,1,278.22,59.12Z"/><path class="cls-2" d="M226.05,79.28l-.35.19L197.5,95.72a15.24,15.24,0,0,1,7.61-13l10.55-6.07A7.66,7.66,0,0,1,226.05,79.28Z"/><path class="cls-3" d="M244.73,90.46v5.79L179.91,133.6v-8.2a33.87,33.87,0,0,1,16.93-29.3l.66-.38,28.2-16.25.35-.19a12.42,12.42,0,0,1,7.51-1.43,12.66,12.66,0,0,1,5.54,2.07,12.53,12.53,0,0,1,5.61,9.86C244.72,90,244.73,90.23,244.73,90.46Z"/><path class="cls-3" d="M276.16,81.83V276.47a5.86,5.86,0,0,1-2.94,5.09L159.87,346.89a5.88,5.88,0,0,1-8.81-5.1V147.15a5.85,5.85,0,0,1,2.95-5.09l25.9-14.93v6.47l64.82-37.35V90.46c0-.23,0-.45,0-.68l22.64-13A5.88,5.88,0,0,1,276.16,81.83Z"/><polygon class="cls-3" points="183.99 191.35 165.71 201.88 165.71 181.15 183.99 170.62 183.99 191.35"/><polygon class="cls-3" points="183.99 228.88 165.71 239.42 165.71 218.68 183.99 208.15 183.99 228.88"/><polygon class="cls-3" points="183.99 266.42 165.71 276.95 165.71 256.22 183.99 245.68 183.99 266.42"/><polygon class="cls-3" points="183.99 303.95 165.71 314.49 165.71 293.75 183.99 283.22 183.99 303.95"/><line class="cls-3" x1="192.88" y1="172.12" x2="261.92" y2="132.33"/><line class="cls-3" x1="192.88" y1="179.99" x2="261.92" y2="140.2"/><line class="cls-3" x1="192.88" y1="210.33" x2="261.92" y2="170.53"/><line class="cls-3" x1="192.88" y1="218.2" x2="261.92" y2="178.41"/><line class="cls-3" x1="192.88" y1="246.99" x2="261.92" y2="207.2"/><line class="cls-3" x1="192.88" y1="254.87" x2="261.92" y2="215.07"/><line class="cls-3" x1="192.88" y1="284.53" x2="261.92" y2="244.74"/><line class="cls-3" x1="192.88" y1="292.4" x2="261.92" y2="252.61"/></svg>