<svg id="Layer_2" data-name="Layer 2" xmlns="http://www.w3.org/2000/svg" viewBox="0 0 420 420"><defs><style>.cls-1,.cls-2{fill:none;stroke:#fff;stroke-linecap:round;stroke-linejoin:round;}.cls-1{stroke-width:2px;}.cls-2{stroke-width:3px;}</style></defs><path class="cls-1" d="M280.56,295.07a11.2,11.2,0,0,1-5.29,9.6l-106.34,61.8c-4.29,2.59-9.66-.66-9.66-5.85V123.71a8.93,8.93,0,0,1,4.24-7.67l31.58-18.33v7.38a2.34,2.34,0,0,0,3.51,2l43.76-25.24a4.73,4.73,0,0,0,2.37-4.1V68.91L270,54.22l4.13-2.4a4.27,4.27,0,0,1,6.39,3.87Z"/><path class="cls-2" d="M286.72,36.07a4.83,4.83,0,0,0-4.42.24L270,43.37l-115,66.21a9.71,9.71,0,0,0-4.87,8.42V375.53a7.3,7.3,0,0,0,3.36,6.2l-18.79-11.31a7.36,7.36,0,0,1-4.18-6.67V106.21a9.74,9.74,0,0,1,4.87-8.42L262.69,24.52a4.82,4.82,0,0,1,4.55-.17l.87.52Z"/><path class="cls-2" d="M286.72,36.07a4.83,4.83,0,0,0-4.42.24L270,43.37l-115,66.21a9.71,9.71,0,0,0-4.87,8.42V375.53a7.3,7.3,0,0,0,3.36,6.2h0l.45.27a7.33,7.33,0,0,0,7.29-.06l122.27-70.66a12.17,12.17,0,0,0,6.09-10.54V40.55A4.85,4.85,0,0,0,286.72,36.07Z"/></svg>