<svg id="Layer_2" data-name="Layer 2" xmlns="http://www.w3.org/2000/svg" viewBox="0 0 420 420"><defs><style>.cls-1{fill:none;stroke:#fff;stroke-linecap:round;stroke-linejoin:round;stroke-width:2.81px;}</style></defs><path class="cls-1" d="M294.71,86.16,292.2,84.7A17.31,17.31,0,0,1,294.71,86.16Z"/><path class="cls-1" d="M157,95.92a12.3,12.3,0,0,0-5.13-1.44c-3.46-.22-7.44.81-11.69,3.23-13.62,7.78-24.38,26.13-24.39,41.57,0,5.06,1.16,9.11,3.19,12a11.7,11.7,0,0,0,3.33,3.22L115,150.39h0l-2.32-1.3h0c-3.74-2.71-6-7.81-6-14.86,0-15.44,10.77-33.79,24.39-41.57,6.53-3.73,12.42-4.15,16.76-1.82l.21.12Z"/><path class="cls-1" d="M114.93,150.38a11.22,11.22,0,0,1-2.32-1.3Z"/><path class="cls-1" d="M316.7,221.19c0,2.81-.66,4.17-3.21,5.6q-17.79,10-35.59,20.36c-1.39.81-2.26,1-2.76.64h0c-.47-.37-.62-1.26-.62-2.66,0-2.14,0-4.27,0-6.41.07-22.89.11-45.77,0-68.54a85.36,85.36,0,0,0-1.7-17.54c-1.57-7-5.08-10-10.52-9.18a24.29,24.29,0,0,0-7.95,3,55.74,55.74,0,0,0-9.05,6.13c-9.67,8.29-13.8,19-15.41,30.16a112.15,112.15,0,0,0-1.08,15.68q-.17,36.53,0,72.88c0,3-.66,4.33-3.34,5.83q-17.79,10-35.59,20.36c-1.26.73-2.08,1-2.6.75l-.14-.08c-.47-.35-.64-1.23-.64-2.66,0-2.15,0-4.3,0-6.45q.1-69.28,0-138.44c0-2.9.58-4.28,3.32-5.81q14.06-7.83,28.11-16l6.17-3.59a7.58,7.58,0,0,1,1.18-.59c1.51-.59,2,.17,1.91,2.39-.15,5.53-.05,10.92-.05,17.29a106.3,106.3,0,0,1,22.65-34.47c8.56-8.62,17.37-13.55,26.25-17.53,7.25-3.25,14.19-5,20.4-4.06.31,0,.62.1.93.17h0a16.66,16.66,0,0,1,2.43.67c7.82,2.74,11.89,10.4,14.21,20.28,2.22,9.49,2.73,20.15,2.71,31.18Q316.59,180.94,316.7,221.19Z"/><path class="cls-1" d="M161.21,310.36c0,2.84-.89,4.06-3.19,5.36q-17.93,10.11-35.84,20.51c-1.27.74-2.11,1-2.62.7l0,0c-.45-.31-.63-1.11-.63-2.48,0-2.23,0-4.47,0-6.7.06-22,0-43.94,0-65.9V189.56c0-4.12,0-4.13,3.74-6.27,9.77-5.59,19.55-11.14,29.32-16.79,2-1.14,4-2.3,6-3.46a4,4,0,0,1,2.3-.82l.44.24a3.33,3.33,0,0,1,.47,2.18Q161.09,237.56,161.21,310.36Z"/><path class="cls-1" d="M160.74,162.46l-.44-.24A.77.77,0,0,1,160.74,162.46Z"/><path class="cls-1" d="M164.34,111.82c0,15.16-10.9,33.52-24.43,41.24-6.44,3.68-12.25,4.2-16.55,2l-1-.57,0,0a11.7,11.7,0,0,1-3.33-3.22c-2-2.89-3.19-6.94-3.19-12,0-15.44,10.77-33.79,24.39-41.57,4.25-2.42,8.23-3.45,11.69-3.23A12.3,12.3,0,0,1,157,95.92C161.54,98.39,164.36,103.9,164.34,111.82Z"/><path class="cls-1" d="M151.57,157.39l-.44-.24A.77.77,0,0,1,151.57,157.39Z"/><line class="cls-1" x1="119.56" y1="336.93" x2="119.53" y2="336.91"/><path class="cls-1" d="M160.3,162.22a4,4,0,0,0-2.3.82c-2,1.16-4,2.32-6,3.46-9.77,5.65-19.55,11.2-29.32,16.79-3.73,2.14-3.74,2.15-3.74,6.27v72.27c0,22,0,43.9,0,65.9,0,2.23,0,4.47,0,6.7,0,1.37.18,2.17.63,2.48l-9-5-.23-.13,0,0c-.4-.34-.56-1.12-.56-2.43.1-24.24.06-48.41.06-72.6V184.5c0-4.13,0-4.14,3.74-6.28,11.77-6.73,23.54-13.41,35.31-20.25a4,4,0,0,1,2.31-.82l.44.24Z"/><line class="cls-1" x1="157.12" y1="95.98" x2="157" y2="95.92"/><line class="cls-1" x1="112.6" y1="149.07" x2="112.56" y2="149.05"/><polyline class="cls-1" points="123.56 155.2 123.36 155.09 122.35 154.52 122.31 154.5"/><path class="cls-1" d="M218,122c-.06,2.28-.07,4.54-.07,6.86q-14,8.16-28.11,16c-2.74,1.53-3.32,2.91-3.32,5.81q.1,69.16,0,138.44c0,2.15,0,4.3,0,6.45,0,1.43.17,2.31.64,2.66l-9.06-5c-.57-.27-.77-1.17-.76-2.73q.1-72.51,0-144.89c0-2.89.57-4.28,3.32-5.81q17.13-9.54,34.28-19.6C217.34,118.74,218,119.25,218,122Z"/><path class="cls-1" d="M299.77,89.11a16.66,16.66,0,0,0-2.43-.67h0c-.31-.07-.62-.12-.93-.17-6.21-1-13.15.81-20.4,4.06-8.88,4-17.69,8.91-26.25,17.53a106.3,106.3,0,0,0-22.65,34.47c0-6.37-.1-11.76.05-17.29.06-2.22-.4-3-1.91-2.39a101.49,101.49,0,0,1,15.32-19.86c8.56-8.62,17.38-13.55,26.26-17.53,7.25-3.25,14.18-5,20.4-4.06a18.27,18.27,0,0,1,5,1.49h0l2.51,1.46h0Z"/><path class="cls-1" d="M275.13,247.78l-9-5-.06,0c-.54-.32-.73-1.23-.72-2.73.08-25,.15-50.06,0-75a85.36,85.36,0,0,0-1.7-17.54,20.44,20.44,0,0,0-1.34-4.11c5.44-.81,8.95,2.16,10.52,9.18a85.36,85.36,0,0,1,1.7,17.54c.16,22.77.12,45.65,0,68.54,0,2.14,0,4.27,0,6.41C274.51,246.52,274.66,247.41,275.13,247.78Z"/><line class="cls-1" x1="275.29" y1="247.87" x2="275.14" y2="247.79"/></svg>