<svg id="Layer_2" data-name="Layer 2" xmlns="http://www.w3.org/2000/svg" viewBox="0 0 420 420"><defs><style>.cls-1,.cls-3,.cls-4,.cls-5,.cls-6{fill:none;stroke:#fff;stroke-linecap:round;stroke-linejoin:round;}.cls-1{stroke-width:3px;}.cls-2{fill:#fff;}.cls-3,.cls-4,.cls-5,.cls-6{stroke-width:2px;}.cls-4{stroke-dasharray:15.17 15.17;}.cls-5{stroke-dasharray:11.59 11.59;}.cls-6{stroke-dasharray:10.97 10.97;}</style></defs><polygon class="cls-1" points="329.51 54.74 329.51 250.25 90.49 388.26 90.49 192.75 319.55 60.49 329.51 54.74"/><polyline class="cls-1" points="80.53 382.51 80.53 187 90.49 192.75 90.49 376.76"/><path class="cls-2" d="M224.21,220.85c0,.79.07,2.81,1.9,1.77,1.67-.94,2.22-2.77,2.22-6.66V198.5c0-3.41-.23-8.68-3.33-10-2.22-1-6.51-.28-11.83,2.74C203,197,200.31,203.44,199.36,206.6a43.93,43.93,0,0,0-1.27,11.91v19.21c0,7.15,1.5,9.47,3.09,10.31,3.26,1.65,9.45-1.62,11.75-2.93a63.46,63.46,0,0,0,5.56-3.63c1.67-1.26,4.13-3.37,5.72-4.83l1.5,4.23a68.16,68.16,0,0,1-7.78,6.71,70.37,70.37,0,0,1-6.27,4c-3.81,2.16-11.91,6.27-16.27,3.67-3.81-2.21-3.89-8.75-3.89-14V222.25c0-6.59.55-14.13,4.05-20.48,2.46-4.49,7.7-10.72,17.3-16.16,6.91-3.92,13.42-6.42,17.63-4.36,3.65,1.74,4.44,6.45,4.44,13.51v17.39c0,4.36-.63,6.95-1.35,8.62a16.33,16.33,0,0,1-6.9,7.33c-1.59.9-3.5,1.59-4.85,1.32s-2.46-1.3-2.54-3.72c-.23,2.44-1.19,4-2.62,6a15.27,15.27,0,0,1-5.47,5.17c-2.23,1.26-4.85,2.27-6.75,1.05s-2.23-4.53-2.23-7.31v-11c0-3.17.24-7.67,2.86-11.62a16.08,16.08,0,0,1,5.08-4.71,10.85,10.85,0,0,1,4.45-1.41,5.34,5.34,0,0,1,3,.83v-3.09l6.59-3.74ZM208.8,227c0,1.35.08,2.73,1,3.43s1.9.43,3-.2a8.79,8.79,0,0,0,3.58-3.93,18.45,18.45,0,0,0,.87-6.77v-8.34c0-1.27,0-3.17-.87-4-.64-.51-1.75-.59-3.18.22a8.46,8.46,0,0,0-2.94,2.93,11.56,11.56,0,0,0-1.43,5.81Z"/><line class="cls-1" x1="90.49" y1="388.26" x2="80.53" y2="382.51"/><polygon class="cls-1" points="329.51 54.74 319.55 60.49 90.49 192.75 80.53 187 319.55 48.99 329.51 54.74"/><line class="cls-3" x1="319.55" y1="60.49" x2="319.55" y2="66.49"/><line class="cls-4" x1="319.55" y1="81.66" x2="319.55" y2="104.41"/><polyline class="cls-3" points="319.55 111.99 319.55 117.99 314.35 120.99"/><line class="cls-5" x1="304.31" y1="126.79" x2="249.09" y2="158.67"/><line class="cls-3" x1="244.07" y1="161.57" x2="238.87" y2="164.57"/><line class="cls-3" x1="100.5" y1="186.97" x2="100.5" y2="192.97"/><line class="cls-4" x1="100.5" y1="208.14" x2="100.5" y2="230.89"/><polyline class="cls-3" points="100.5 238.47 100.5 244.47 105.7 241.47"/><line class="cls-6" x1="115.2" y1="235.98" x2="167.45" y2="205.81"/><line class="cls-3" x1="172.2" y1="203.07" x2="177.4" y2="200.07"/><path class="cls-1" d="M265.44,198.35c0,27.87-22.59,59.54-50.46,70.74s-50.46-2.32-50.46-30.19c0-12.93,4.87-26.68,12.88-38.83,9.23-14,22.65-25.9,37.58-31.9,8.64-3.47,16.78-4.57,23.89-3.6C254.69,166.73,265.44,179.12,265.44,198.35Z"/></svg>