<svg id="Layer_2" data-name="Layer 2" xmlns="http://www.w3.org/2000/svg" viewBox="0 0 420 420"><defs><style>.cls-1{fill:#383838;}.cls-2{fill:none;stroke:#383838;stroke-linecap:round;stroke-linejoin:round;stroke-width:2.81px;}</style></defs><path class="cls-1" d="M210,90.87h39.71a39.71,39.71,0,0,1,39.71,39.71v0a39.71,39.71,0,0,1-39.71,39.71H210a0,0,0,0,1,0,0V90.87A0,0,0,0,1,210,90.87Z"/><path class="cls-1" d="M170.29,90.87H210a0,0,0,0,1,0,0v79.42a0,0,0,0,1,0,0H170.29a39.71,39.71,0,0,1-39.71-39.71v0A39.71,39.71,0,0,1,170.29,90.87Z"/><path class="cls-1" d="M170.29,170.29H210a0,0,0,0,1,0,0v79.42a0,0,0,0,1,0,0H170.29A39.71,39.71,0,0,1,130.58,210v0a39.71,39.71,0,0,1,39.71-39.71Z"/><path class="cls-1" d="M170.29,249.71H210a0,0,0,0,1,0,0v39.71a39.71,39.71,0,0,1-39.71,39.71h0a39.71,39.71,0,0,1-39.71-39.71v0a39.71,39.71,0,0,1,39.71-39.71Z"/><circle class="cls-1" cx="249.71" cy="210" r="39.71"/><path class="cls-2" d="M209.89,381.42q-55.8,0-111.59,0c-28.5,0-51.79-16.19-60.8-42A65.72,65.72,0,0,1,34,317.58q0-107.74,0-215.49c0-34.13,24.09-60.42,58.07-63.5,1.26-.11,2.53-.11,3.81-.11H323.21A62.49,62.49,0,0,1,386,101.29q0,108.71,0,217.4c0,33.83-26.53,61.75-60.39,62.49-28.7.62-57.42.2-86.14.24Z"/></svg>