<svg id="Layer_2" data-name="Layer 2" xmlns="http://www.w3.org/2000/svg" viewBox="0 0 420 420"><defs><style>.cls-1{fill:#383838;}.cls-2{fill:none;stroke:#383838;stroke-linecap:round;stroke-linejoin:round;stroke-width:2.81px;}</style></defs><path class="cls-1" d="M96.27,194.89V115c0-2.78.11-2.85,2.79-2.9,15.81-.3,31.61-.66,47.42-.9a95.52,95.52,0,0,1,27.74,3.23c11.41,3.23,21.43,8.76,29.12,18a51,51,0,0,1,11.16,25.65c1.72,11.65.84,23.11-3.87,34-6.14,14.15-17.07,23.27-31.45,28.36-10.87,3.85-22.19,4.9-33.64,4.84-4.36,0-8.71-.19-13.07-.27-2.18,0-2.19,0-2.19,2.13v47.59c0,2.73-.37,3.11-3,3.11h-28c-2.52,0-2.9-.38-2.9-2.92Q96.26,234.91,96.27,194.89Zm34.33-52.57v53.4c4.87,0,9.64,0,14.41,0a55.49,55.49,0,0,0,19.46-3.26c7.1-2.6,12.68-7,15.21-14.43a30.27,30.27,0,0,0,1.3-12.46c-.83-9.51-5.4-16.53-14.37-20.31A42,42,0,0,0,150.35,142c-5.57,0-11.13,0-16.7.05C132.66,142.09,131.67,142.24,130.6,142.32Z"/><path class="cls-1" d="M232.32,257.56c0-4.41,0-8.82,0-13.23,0-2.13.63-2.5,2.45-1.47A77.34,77.34,0,0,0,271,252.61a34.42,34.42,0,0,0,13.35-1.71,7.69,7.69,0,0,0,5.26-5.78,6.5,6.5,0,0,0-2.68-6.81,46.23,46.23,0,0,0-8.19-4.9c-6.35-2.88-12.93-5.24-19.23-8.22-6.66-3.14-12.87-7-18-12.47-13.79-14.67-10.93-38.81,3.8-51.12A47.1,47.1,0,0,1,270.18,151a112.65,112.65,0,0,1,36.49,1.52,60.64,60.64,0,0,1,7.82,2.38c2.28.78,2.65,1.38,2.66,3.85,0,7.19,0,14.39,0,21.58V183c0,2.77-1.35,3.52-4,2.38a88.61,88.61,0,0,0-9.48-3.77,77.26,77.26,0,0,0-25.95-3.32,29.33,29.33,0,0,0-7.25,1.33c-5.54,1.73-7.13,8.2-2.85,12.13a29.86,29.86,0,0,0,7.74,5c6.52,3,13.27,5.49,19.81,8.46,6.06,2.76,12,5.83,17.09,10.24,8.93,7.73,12.38,17.69,11.2,29.2-1.83,18-12.73,28.34-29.33,33.46-10,3.08-20.26,3.36-30.57,2.7a90.24,90.24,0,0,1-23.31-4.26c-1.93-.66-3.81-1.49-5.7-2.25a3.4,3.4,0,0,1-2.3-3.54C232.37,266.39,232.32,262,232.32,257.56Z"/><path class="cls-2" d="M209.89,381.42q-55.8,0-111.59,0c-28.5,0-51.79-16.19-60.8-42A65.72,65.72,0,0,1,34,317.58q0-107.74,0-215.49c0-34.13,24.09-60.42,58.07-63.5,1.26-.11,2.53-.11,3.81-.11H323.21A62.49,62.49,0,0,1,386,101.29q0,108.71,0,217.4c0,33.83-26.53,61.75-60.39,62.49-28.7.62-57.42.2-86.14.24Z"/></svg>