<svg id="Layer_2" data-name="Layer 2" xmlns="http://www.w3.org/2000/svg" viewBox="0 0 420 420"><defs><style>.cls-1{fill:#383838;}.cls-2{fill:none;stroke:#383838;stroke-linecap:round;stroke-linejoin:round;stroke-width:2.81px;}</style></defs><path class="cls-1" d="M295.41,136.59h-171c-.63,0-.79.11-.72.78.35,3.51.64,7,1,10.53q.52,6,1.06,12,.61,6.94,1.24,13.9c.36,4,.7,8,1.06,12q.62,6.87,1.24,13.75c.36,4,.7,8,1.06,12,.46,5.11.93,10.22,1.38,15.33.41,4.57.8,9.13,1.2,13.69q.76,8.46,1.53,16.91c.46,5.11.89,10.23,1.35,15.34q.9,10.06,1.81,20.13.87,9.7,1.72,19.42a.64.64,0,0,0,.56.67c1.41.37,2.82.77,4.23,1.16q32.45,9,64.9,18a3,3,0,0,0,1.73,0q26.82-7.45,53.63-14.88L280,313c.3-.09.55-.13.59-.57.26-3.13.56-6.26.84-9.39q.52-6,1.06-12,.62-6.87,1.24-13.75.53-6,1.06-12,.62-6.88,1.24-13.76.54-6.06,1.07-12.11.62-6.89,1.24-13.76.53-6,1.06-12,.62-7,1.25-14l1.05-11.82q.61-6.88,1.24-13.76.54-6,1.07-12.11.61-6.94,1.24-13.9c.32-3.49.62-7,.95-10.46C296.32,136.59,296.35,136.59,295.41,136.59ZM264,173.48c-.33,3.49-.64,7-.95,10.46l-1.11,12.4-1.05,11.82q-.63,6.94-1.25,13.89-.54,6-1.06,12-.61,6.91-1.24,13.83c-.31,3.43-.61,6.87-.92,10.31q-.54,6.13-1.1,12.25c-.35,3.89-.71,7.79-1,11.68a.78.78,0,0,1-.71.85l-42.9,11.9-.62.2-.14-.05c-2-.42-3.88-1-5.81-1.56l-37.79-10.49a.84.84,0,0,1-.76-.89c-.38-4.59-.82-9.17-1.23-13.75q-.54-6.06-1.06-12.11c-.2-2.3-.39-4.59-.62-6.88,0-.45.09-.52.48-.52q10.34,0,20.66,0c.42,0,.52.14.55.52.26,3,.55,6,.81,9,.22,2.37.43,4.73.61,7.1,0,.5.28.66.73.78l23.43,6.34.17-.08c.19,0,.38-.07.56-.12l21.9-5.91c1.41-.38,1.45-.38,1.6-1.95q.65-6.87,1.25-13.75c.36-4,.69-8,1.08-12,.07-.64-.07-.75-.67-.75-7.82,0-15.63,0-23.45,0-.77,0-1.53,0-2.3,0l-.14-.05-.71,0q-23.36,0-46.71,0c-.71,0-.91-.19-1-.9-.39-4.65-.82-9.31-1.24-14-.19-2.1-.37-4.21-.57-6.31,0-.34,0-.5.4-.46h49.29l.5,0,.14-.06.21,0q13.81,0,27.62,0c.47,0,.54-.19.57-.58.23-2.8.49-5.59.74-8.38.37-4.13.72-8.26,1.11-12.39.07-.65-.08-.83-.76-.83q-14.38,0-28.77,0c-.24,0-.48,0-.72,0l-.08,0q-25.65,0-51.3,0c-.79,0-.92-.29-1-.92q-.86-9.42-1.74-18.84c0-.28,0-.57-.05-.86-.08-1-.08-1,1-1H210l.07,0,.86,0h52.33C264.1,172.61,264.08,172.61,264,173.48Z"/><path class="cls-1" d="M221.87,88.67c0,3,0,6,0,9,0,.6-.3.52-.66.52H207.43c-.25,0-.68-.19-.73.19a3.21,3.21,0,0,0,.05,1.63c.07.17.4.07.62.07,4.6,0,9.21,0,13.82,0,.55,0,.71.12.71.7q0,10.29,0,20.59c0,.49-.11.64-.62.64q-12.47,0-24.91,0c-.55,0-.67-.14-.67-.68,0-2.9,0-5.81,0-8.71,0-.51.15-.63.64-.63,4.63,0,9.26,0,13.89,0,.62,0,.75-.17.73-.75-.05-1.16,0-1.16-1.17-1.16-4.46,0-8.92,0-13.39,0-.58,0-.7-.18-.7-.72,0-6.65,0-13.3,0-20,0-.26,0-.52,0-.78Z"/><path class="cls-1" d="M253.25,88.67c0,3,0,6.09.06,9.13,0,.57-.39.37-.65.37l-13.59,0c-.32,0-.83-.19-.92.13a4.3,4.3,0,0,0,0,1.64c0,.23.37.12.57.12h8.2c1.95,0,3.89,0,5.83,0,.43,0,.58.1.58.56q0,10.43,0,20.87c0,.44-.17.5-.55.5q-12.51,0-25,0c-.48,0-.59-.14-.59-.6,0-2.91,0-5.81,0-8.71,0-.55.12-.71.69-.71,4.61,0,9.21,0,13.82,0,.61,0,.75-.16.73-.75-.05-1.16,0-1.16-1.17-1.16H227.82c-.43,0-.69,0-.69-.58,0-6.84,0-13.68,0-20.51a2,2,0,0,1,.06-.35Z"/><path class="cls-1" d="M190.49,88.67c0,3.43,0,6.86,0,10.29,0,.53-.11.67-.66.67-4.63,0-9.26,0-13.89,0-.54,0-.72.1-.72.69,0,3.22,0,6.43,0,9.65,0,.5.12.64.63.63,4.65,0,9.31,0,14,0,.52,0,.68.1.67.66,0,3.21,0,6.43,0,9.64,0,.52-.1.68-.65.67q-12.45,0-24.9,0c-.56,0-.66-.16-.66-.68q0-15.69,0-31.38c0-.27,0-.53,0-.79Z"/><path class="cls-2" d="M209.89,381.42q-55.8,0-111.59,0c-28.5,0-51.79-16.19-60.8-42A65.72,65.72,0,0,1,34,317.58q0-107.74,0-215.49c0-34.13,24.09-60.42,58.07-63.5,1.26-.11,2.53-.11,3.81-.11H323.21A62.49,62.49,0,0,1,386,101.29q0,108.71,0,217.4c0,33.83-26.53,61.75-60.39,62.49-28.7.62-57.42.2-86.14.24Z"/></svg>