<svg id="Layer_2" data-name="Layer 2" xmlns="http://www.w3.org/2000/svg" viewBox="0 0 420 420"><defs><style>.cls-1{fill:#332a2e;}.cls-2,.cls-3,.cls-4,.cls-6,.cls-7{fill:#fff;}.cls-3,.cls-4,.cls-5,.cls-6,.cls-7,.cls-8{stroke:#e74040;stroke-miterlimit:10;}.cls-3,.cls-4,.cls-5{stroke-width:4.91px;}.cls-4,.cls-5,.cls-7,.cls-8{stroke-linecap:round;}.cls-5,.cls-8{fill:none;}.cls-6,.cls-7,.cls-8{stroke-width:4.14px;}</style></defs><path class="cls-1" d="M206.93,20.67h6.14A165.59,165.59,0,0,1,378.66,186.25v196.5a16.58,16.58,0,0,1-16.58,16.58H57.92a16.58,16.58,0,0,1-16.58-16.58V186.25A165.59,165.59,0,0,1,206.93,20.67Z"/><path class="cls-2" d="M210,53.28h0A137.55,137.55,0,0,0,72.45,190.83v208.5h275.1V190.83A137.55,137.55,0,0,0,210,53.28Z"/><rect class="cls-1" x="82.28" y="399.33" width="255.44"/><rect class="cls-1" x="110.13" y="134.49" width="89.88" height="111.59" rx="11.35"/><rect class="cls-1" x="217.93" y="134.49" width="89.88" height="111.59" rx="11.35"/><rect class="cls-1" x="110.13" y="265.63" width="89.88" height="111.59" rx="11.35"/><rect class="cls-1" x="217.93" y="265.63" width="89.88" height="111.59" rx="11.35"/><path class="cls-3" d="M167.49,293.79c-21.78,0-24.53-3.17-26.62-4.35s-2-3.84-2.87-8.54-.82-17.4-.92-23.95,2.3-9.72,4-11.87,5-7.63,5-10.29v-10c0-4.34-12-37.86-16.52-50.53a5.57,5.57,0,0,1,2.9-7c7.15-3.29,20.21-9.3,21.91-10.14a4.62,4.62,0,0,0,2.6-3.69c.16-.56,1.9-7.62,2.56-9.31s8-1.4,8-1.4,7.29-.29,7.95,1.4,2.41,8.75,2.56,9.31a4.62,4.62,0,0,0,2.61,3.69c1.7.84,14.75,6.85,21.9,10.14a5.57,5.57,0,0,1,2.91,7c-4.58,12.67-16.52,46.19-16.52,50.53v10c0,2.66,3.22,8.14,5,10.29s4.15,5.32,4,11.87-.05,19.24-.92,23.95-.76,7.37-2.86,8.54S189.27,293.79,167.49,293.79Z"/><path class="cls-3" d="M161.22,143.2l1-9.42a2.65,2.65,0,0,1,1-1.72,6.05,6.05,0,0,1,8.69,0,2.64,2.64,0,0,1,.95,1.72l1,9.42"/><line class="cls-4" x1="167.49" y1="293.79" x2="167.49" y2="395.49"/><path class="cls-5" d="M167.49,370.65c7.83,0,17.39,3.82,17.39,11.46s.8,13.38,4.89,13.38c2.44,0,4-.65,4-6.25"/><path class="cls-5" d="M167.49,370.65c-7.82,0-17.38,3.82-17.38,11.46s-.81,13.38-4.89,13.38c-2.45,0-4-.65-4-6.25"/><path class="cls-6" d="M257.61,309.75c-18.36,0-20.68-2.67-22.44-3.66s-1.69-3.24-2.42-7.21-.69-14.67-.78-20.19a13.92,13.92,0,0,1,3.41-10c1.47-1.81,4.19-6.42,4.19-8.67V251.6c0-3.66-10.07-31.92-13.93-42.6a4.7,4.7,0,0,1,2.45-5.88c6-2.77,17-7.83,18.46-8.55a3.86,3.86,0,0,0,2.2-3.11c.13-.47,1.6-6.42,2.16-7.85s6.7-1.18,6.7-1.18,6.14-.24,6.7,1.18,2,7.38,2.16,7.85a3.91,3.91,0,0,0,2.2,3.11c1.43.72,12.44,5.78,18.47,8.55a4.69,4.69,0,0,1,2.44,5.88c-3.85,10.68-13.92,38.94-13.92,42.6V260c0,2.25,2.72,6.86,4.18,8.67a13.88,13.88,0,0,1,3.41,10c-.08,5.52,0,16.22-.77,20.19s-.65,6.21-2.42,7.21S276,309.75,257.61,309.75Z"/><path class="cls-6" d="M252.33,182.8l.81-8a2.22,2.22,0,0,1,.81-1.44,5.07,5.07,0,0,1,7.32,0,2.18,2.18,0,0,1,.81,1.44l.82,8"/><line class="cls-7" x1="257.61" y1="309.75" x2="257.61" y2="395.49"/><path class="cls-8" d="M257.61,374.55c6.6,0,14.66,3.22,14.66,9.66s.68,11.28,4.12,11.28c2.06,0,3.35-.55,3.35-5.27"/><path class="cls-8" d="M257.61,374.55c-6.59,0-14.65,3.22-14.65,9.66s-.68,11.28-4.13,11.28c-2.06,0-3.35-.55-3.35-5.27"/></svg>