<svg id="Layer_2" data-name="Layer 2" xmlns="http://www.w3.org/2000/svg" viewBox="0 0 420 420"><defs><style>.cls-1,.cls-6,.cls-7,.cls-8{fill:#fff;}.cls-1,.cls-6{stroke:#332a2e;}.cls-1,.cls-3,.cls-4,.cls-6,.cls-8{stroke-miterlimit:10;}.cls-1{stroke-width:2.25px;}.cls-2{fill:#332a2e;}.cls-3,.cls-4{fill:none;stroke:#fff;stroke-linecap:round;stroke-width:4.5px;}.cls-4{stroke-dasharray:26.15 26.15;}.cls-5{fill:#e74040;}.cls-6{stroke-width:0.9px;}.cls-8{stroke:#e74040;stroke-width:4.38px;}</style></defs><rect class="cls-1" x="37.14" y="37.14" width="345.73" height="345.73"/><circle class="cls-2" cx="210" cy="210" r="172.86"/><path class="cls-3" d="M112.05,124.34a117.72,117.72,0,0,0-7.09,11.5"/><path class="cls-4" d="M94.31,159.68c-6.18,17.83-10,40.4-3.13,62.9,15,49,92.17,22.45,123.09-12.58,50.94-57.72,156.66-36,121.55,44.71"/><path class="cls-3" d="M330,266.4q-3.15,5.58-7.14,11.46"/><path class="cls-5" d="M214.72,167.3c-41-11.37-67.15-20.36-98.3-42.74-3.27-2.35-6.17,1.5-3.3,4.37L169.21,185l-3.32,3.32-56.1-56.09c-2.86-2.87-6.72,0-4.37,3.3,22.39,31.15,31.38,57.26,42.74,98.3,1.18,4.26,5.16,7.63,9.31,7.45a67.76,67.76,0,0,1,51.25,20.31l10.73-10.73,4.49-4.49,3.32-3.32,4.49-4.48,10.73-10.74a67.8,67.8,0,0,1-20.31-51.25C222.35,172.46,219,168.48,214.72,167.3Z"/><path class="cls-5" d="M246.27,231.15l58,58a4,4,0,0,1,0,5.71l-4.11,4.11-9.48-9.48a3.53,3.53,0,0,0-4.79,0l-2.74,2.74a3.4,3.4,0,0,0,0,4.8l9.47,9.48-17,17a4,4,0,0,1-5.6-.11L212,265.41Z"/><rect class="cls-5" x="197.2" y="239.7" width="56.81" height="10.09" rx="2.6" transform="translate(-106.98 231.21) rotate(-45)"/><rect class="cls-6" x="205.51" y="32.65" width="8.98" height="8.98"/><rect class="cls-6" x="32.65" y="32.65" width="8.98" height="8.98"/><rect class="cls-6" x="378.37" y="32.65" width="8.98" height="8.98"/><rect class="cls-6" x="205.51" y="378.37" width="8.98" height="8.98"/><rect class="cls-6" x="32.65" y="378.37" width="8.98" height="8.98"/><rect class="cls-6" x="378.37" y="378.37" width="8.98" height="8.98"/><rect class="cls-6" x="32.65" y="205.51" width="8.98" height="8.98"/><rect class="cls-6" x="378.37" y="205.51" width="8.98" height="8.98"/><path class="cls-7" d="M217,159.39c-41-11.37-67.15-20.36-98.3-42.74-3.27-2.35-6.17,1.5-3.3,4.37l56.09,56.1-3.32,3.32-56.09-56.1c-2.87-2.87-6.73,0-4.38,3.31,22.39,31.15,31.38,57.26,42.74,98.29,1.18,4.26,5.16,7.63,9.31,7.46A67.71,67.71,0,0,1,211,253.71L221.71,243l4.48-4.49,3.33-3.32,4.48-4.49L244.74,220a67.77,67.77,0,0,1-20.32-51.25C224.6,164.54,221.23,160.56,217,159.39Z"/><path class="cls-7" d="M248.53,223.24l57.94,57.95a4,4,0,0,1,0,5.71L302.36,291l-9.48-9.48a3.51,3.51,0,0,0-4.79,0l-2.74,2.74a3.41,3.41,0,0,0,0,4.8l9.47,9.48-17,17a4,4,0,0,1-5.6-.11L214.27,257.5Z"/><rect class="cls-8" x="199.45" y="231.78" width="56.81" height="10.09" rx="2.6" transform="translate(-100.73 230.48) rotate(-45)"/></svg>