<svg id="Layer_2" data-name="Layer 2" xmlns="http://www.w3.org/2000/svg" viewBox="0 0 420 420"><defs><style>.cls-1{fill:none;stroke:#383838;stroke-linecap:round;stroke-linejoin:round;stroke-width:2.81px;}.cls-2{fill:#383838;}</style></defs><path class="cls-1" d="M209.89,381.42q-55.8,0-111.59,0c-28.5,0-51.79-16.19-60.8-42A65.72,65.72,0,0,1,34,317.58q0-107.74,0-215.49c0-34.13,24.09-60.42,58.07-63.5,1.26-.11,2.53-.11,3.81-.11H323.21A62.49,62.49,0,0,1,386,101.29q0,108.71,0,217.4c0,33.83-26.53,61.75-60.39,62.49-28.7.62-57.42.2-86.14.24Z"/><path class="cls-2" d="M326.65,198.76c0,20,0,40,0,59.94,0,5.18.43,10.37.78,15.55.14,2.09-.28,3.61-2.43,4.43-20.34,7.68-41.15,11.29-62.6,5.84-23.62-6-37.49-23-39.48-47.36-3-36.71,20.77-64.17,57.55-66.48,4-.25,8-.87,11.95-.13,2.73.51,3.07-.71,3.05-3-.08-12.79.1-25.57-.12-38.36-.06-3.69,1-4.83,4.69-4.68,7.45.28,14.93.24,22.38,0,3.38-.1,4.27,1.06,4.25,4.33C326.59,152.15,326.65,175.46,326.65,198.76Zm-31.18,29.49c0-9.06-.17-18.11.09-27.16.1-3.42-1.28-4.29-4.28-4.53-19.47-1.53-39.7,10-36.24,37.6,1.94,15.47,10.34,23.74,25.77,25.75a56.89,56.89,0,0,0,11.15-.17c2.66-.18,3.62-1.16,3.57-3.93C295.37,246.62,295.47,237.43,295.47,228.25Z"/><path class="cls-2" d="M152.81,229c-6.17,11.61-12.07,22.78-18,33.92-3.27,6.11-6.73,12.11-9.9,18.26a5.91,5.91,0,0,1-6,3.65c-8.8-.12-17.59,0-26.39-.05-4.25,0-4.53-.55-2.26-4.3,13.36-22,26.66-43.95,40.19-65.8,1.91-3.08,1.77-5.16,0-8.16-13-21.7-25.84-43.51-38.72-65.29-2.49-4.22-2.36-4.45,2.56-4.46,9.07,0,18.13.1,27.19,0,3.24-.05,5.06,1.08,6.42,4.1,7.86,17.51,18.66,33.46,27,50.67,1.2,0,1.28-1,1.61-1.6,8.79-16.74,17.61-33.46,26.3-50.25,1.07-2,2.33-2.93,4.63-2.9,8.8.08,17.6,0,26.39.05,3.78,0,4,.54,2.08,3.81-12.75,21.08-25.44,42.2-38.37,63.17-2.06,3.35-2.28,5.65-.11,9.14,13.73,22,27.17,44.26,40.68,66.44.8,1.32,2.4,2.63,1.61,4.27-.93,1.95-3.08,1.12-4.7,1.13-9.06.07-18.13,0-27.19.06-3.58,0-5.84-1.26-7.5-4.64C171.82,263,162.43,246.28,152.81,229Z"/></svg>