<svg id="Layer_2" data-name="Layer 2" xmlns="http://www.w3.org/2000/svg" viewBox="0 0 420 420"><defs><style>.cls-1,.cls-2{fill:none;stroke:#383838;stroke-linecap:round;stroke-linejoin:round;}.cls-1{stroke-width:3.19px;}.cls-2{stroke-width:2.83px;}</style></defs><path class="cls-1" d="M314,66.64l-6.82,4-194.3,113V353.12A2.77,2.77,0,0,0,117,355.5l99.08-58.85,5.83-3.46L260,270.58l8.27-4.91.1-.06,46.2-27.44a8.09,8.09,0,0,0,4-6.95V69.27A3,3,0,0,0,314,66.64ZM309.2,227a5.26,5.26,0,0,1-2.55,4.5L131,336.56a5.25,5.25,0,0,1-7.94-4.5V191.7a5.23,5.23,0,0,1,2.63-4.55L301.34,86.33a5.25,5.25,0,0,1,7.86,4.55Z"/><path class="cls-1" d="M309.2,90.88V227a5.26,5.26,0,0,1-2.55,4.5L131,336.56a5.25,5.25,0,0,1-7.94-4.5V191.7a5.23,5.23,0,0,1,2.63-4.55L301.34,86.33A5.25,5.25,0,0,1,309.2,90.88Z"/><path class="cls-2" d="M309.2,90.88V227a5.26,5.26,0,0,1-2.55,4.5L131,336.56a5.25,5.25,0,0,1-7.94-4.5V191.7a5.23,5.23,0,0,1,2.63-4.55L301.34,86.33A5.25,5.25,0,0,1,309.2,90.88Z"/><path class="cls-2" d="M281.44,317.79a2.22,2.22,0,0,1,0,3.85l-1.64.94-51.95,30a6.68,6.68,0,0,1-6.67,0l-31.57-18.2-1.83-1.05a2.09,2.09,0,0,1,0-3.62l14.88-8.6V335l5.83,3.28,46.44-26.88v-8.87Z"/><polygon class="cls-2" points="254.94 274.54 254.94 311.39 208.5 338.27 208.5 301.43 246.57 279.38 249.11 277.92 254.94 274.54"/><polygon class="cls-2" points="268.39 265.73 262.56 269.11 260.02 270.58 268.29 265.67 268.39 265.73"/><polygon class="cls-2" points="208.5 302 208.5 338.27 202.67 335 202.67 305.45 208.5 302"/><line class="cls-2" x1="268.39" y1="265.73" x2="268.39" y2="265.46"/><path class="cls-2" d="M282.34,321.31v5.74L227.1,358.76a5.13,5.13,0,0,1-5.14,0L188.35,339.3a3.21,3.21,0,0,1-1.61-2.78v-3.88l5,2.86,32.82,19,55.28-31.93Z"/><path class="cls-1" d="M315.65,65.54l-8.5,5.07L115.75,182a5.84,5.84,0,0,0-2.9,5.05V354.7l-8.1-3.81a5.73,5.73,0,0,1-3.29-5.18V182a6.44,6.44,0,0,1,3.19-5.56L303,61.45a6.66,6.66,0,0,1,6.18-.27Z"/><line class="cls-1" x1="112.85" y1="183.64" x2="102.98" y2="178.29"/></svg>