<svg id="Layer_2" data-name="Layer 2" xmlns="http://www.w3.org/2000/svg" viewBox="0 0 420 420"><defs><style>.cls-1,.cls-2{fill:none;stroke:#383838;stroke-linecap:round;stroke-linejoin:round;}.cls-1{stroke-width:2.83px;}.cls-2{stroke-width:1.65px;}</style></defs><polygon class="cls-1" points="288.11 272.96 138.73 359.36 138.73 146.59 288.11 60.19 288.11 272.96"/><polygon class="cls-2" points="233.38 304.61 193.46 327.7 193.46 268.87 233.38 245.78 233.38 304.61"/><path class="cls-2" d="M233,246s0-36.28,18.46-67.67c0,0-32.1-6-32.1-59.79L216,120.46v48.89l-5.24,3V123.49l-3.33,1.92c0,53.79-32.1,96.92-32.1,96.92,18.46,10,18.46,46.32,18.46,46.32"/><polygon class="cls-1" points="144.35 137.37 144.35 150.45 134.53 156.45 134.53 143.37 136.06 142.44 144.35 137.37"/><polygon class="cls-1" points="134.53 143.37 134.53 156.45 126.22 152.46 126.22 139.39 134.53 143.37"/><polygon class="cls-1" points="144.35 137.37 136.06 142.44 134.53 143.37 126.22 139.39 136.06 133.39 144.35 137.37"/><polygon class="cls-1" points="223.84 95.55 223.84 108.63 214.01 114.63 214.01 101.55 215.53 100.62 223.84 95.55"/><polygon class="cls-1" points="214.01 101.55 214.01 105.57 205.71 110.64 205.71 97.57 214.01 101.55"/><polygon class="cls-1" points="223.84 95.55 215.53 100.62 214.01 101.55 205.71 97.57 215.53 91.57 223.84 95.55"/><line class="cls-1" x1="214.01" y1="114.63" x2="205.71" y2="110.64"/><polygon class="cls-1" points="293.77 54.8 293.77 67.87 283.94 73.87 283.94 60.8 285.46 59.87 293.77 54.8"/><polygon class="cls-1" points="293.77 54.8 285.46 59.87 283.94 60.8 275.63 56.81 285.46 50.81 293.77 54.8"/><polygon class="cls-1" points="283.94 60.8 283.94 73.87 275.63 69.89 275.63 56.81 283.94 60.8"/><polygon class="cls-1" points="145.59 350.11 145.59 363.19 135.78 369.19 135.78 356.11 137.29 355.18 145.59 350.11"/><polygon class="cls-1" points="135.78 356.11 135.78 369.19 127.47 365.2 127.47 352.12 135.78 356.11"/><polygon class="cls-1" points="145.59 350.11 137.29 355.18 135.78 356.11 127.47 352.12 137.29 346.12 145.59 350.11"/><polygon class="cls-1" points="223.84 308.63 223.84 321.71 214.01 327.71 214.01 314.63 215.53 313.7 223.84 308.63"/><polygon class="cls-1" points="214.01 314.63 214.01 327.71 205.71 323.72 205.71 310.64 214.01 314.63"/><polygon class="cls-1" points="223.84 308.63 215.53 313.7 214.01 314.63 205.71 310.64 215.53 304.64 223.84 308.63"/><polygon class="cls-1" points="293.77 267.87 293.77 280.95 283.94 286.95 283.94 273.87 285.46 272.94 293.77 267.87"/><polygon class="cls-1" points="283.94 273.87 283.94 286.95 275.63 282.96 275.63 269.89 283.94 273.87"/><polygon class="cls-1" points="293.77 267.87 285.46 272.94 283.94 273.87 275.63 269.89 285.46 263.89 293.77 267.87"/><polygon class="cls-1" points="144.35 246.69 144.35 259.77 134.53 265.77 134.53 252.69 136.06 251.76 144.35 246.69"/><polygon class="cls-1" points="134.53 252.69 134.53 265.77 126.22 261.78 126.22 248.71 134.53 252.69"/><polygon class="cls-1" points="144.35 246.69 136.06 251.76 134.53 252.69 126.22 248.71 136.06 242.71 144.35 246.69"/><polygon class="cls-1" points="293.77 164.12 293.77 177.19 283.94 183.19 283.94 170.12 285.46 169.19 293.77 164.12"/><polygon class="cls-1" points="283.94 170.12 283.94 183.19 275.63 179.21 275.63 166.13 283.94 170.12"/><polygon class="cls-1" points="293.77 164.12 285.46 169.19 283.94 170.12 275.63 166.13 285.46 160.13 293.77 164.12"/></svg>