<svg id="Layer_2" data-name="Layer 2" xmlns="http://www.w3.org/2000/svg" viewBox="0 0 420 420"><defs><style>.cls-1{fill:#4a4a4a;}.cls-2{fill:#332a2e;}.cls-3{fill:#fff;}.cls-4{fill:#e74040;}.cls-5{fill:none;stroke:#fff;stroke-miterlimit:10;stroke-width:3.47px;}</style></defs><rect class="cls-1" x="168.84" y="313.03" width="82.32" height="43.58"/><rect class="cls-2" x="24.25" y="43.9" width="371.49" height="269.1" rx="16.72"/><rect class="cls-3" x="32.28" y="51.53" width="355.45" height="253.84" rx="9.54"/><path class="cls-2" d="M36,263.54H384a0,0,0,0,1,0,0v30.68a6.49,6.49,0,0,1-6.49,6.49H42.54A6.49,6.49,0,0,1,36,294.22V263.54a0,0,0,0,1,0,0Z"/><rect class="cls-2" x="130.59" y="354.91" width="158.82" height="21.18" rx="7.97"/><rect class="cls-2" x="55.08" y="83.61" width="309.84" height="159.35" rx="5.45"/><circle class="cls-3" cx="84.79" cy="91.32" r="3.09"/><rect class="cls-4" x="71.38" y="111.97" width="48.52" height="117.49" rx="1.57"/><rect class="cls-4" x="129.45" y="111.97" width="221.09" height="29.23" rx="1.57"/><path class="cls-3" d="M242.87,150.17a1.18,1.18,0,0,1,1.18,1.18V224.8a1.19,1.19,0,0,1-1.18,1.19H134.11a1.19,1.19,0,0,1-1.18-1.19V151.35a1.18,1.18,0,0,1,1.18-1.18H242.87m0-3.48H134.11a4.66,4.66,0,0,0-4.66,4.66V224.8a4.66,4.66,0,0,0,4.66,4.66H242.87a4.66,4.66,0,0,0,4.65-4.66V151.35a4.66,4.66,0,0,0-4.65-4.66Z"/><path class="cls-5" d="M147.64,227.34l30.7-30.7a9,9,0,0,1,12.78,0l31.42,31.42"/><path class="cls-5" d="M194.49,200l21.2-21.19a6.4,6.4,0,0,1,9.07,0l20.35,20.35"/><circle class="cls-3" cx="159.65" cy="170.71" r="9.31"/><rect class="cls-4" x="253.41" y="146.69" width="97.14" height="9.7" rx="1.57"/><rect class="cls-4" x="253.41" y="161.25" width="97.14" height="9.7" rx="1.57"/><rect class="cls-4" x="253.41" y="175.8" width="97.14" height="9.7" rx="1.57"/><rect class="cls-4" x="253.41" y="190.36" width="97.14" height="9.7" rx="1.57"/><rect class="cls-4" x="253.41" y="204.91" width="97.14" height="9.7" rx="1.57"/><rect class="cls-4" x="253.41" y="219.47" width="97.14" height="9.7" rx="1.57"/><circle class="cls-3" cx="64.15" cy="91.32" r="3.09"/><circle class="cls-3" cx="74.47" cy="91.32" r="3.09"/></svg>