<svg id="Layer_2" data-name="Layer 2" xmlns="http://www.w3.org/2000/svg" viewBox="0 0 420 420"><defs><style>.cls-1{fill:none;stroke:#383838;stroke-linecap:round;stroke-linejoin:round;stroke-width:2.81px;}.cls-2{fill:#383838;}</style></defs><path class="cls-1" d="M209.89,381.42q-55.8,0-111.59,0c-28.5,0-51.79-16.19-60.8-42A65.72,65.72,0,0,1,34,317.58q0-107.74,0-215.49c0-34.13,24.09-60.42,58.07-63.5,1.26-.11,2.53-.11,3.81-.11H323.21A62.49,62.49,0,0,1,386,101.29q0,108.71,0,217.4c0,33.83-26.53,61.75-60.39,62.49-28.7.62-57.42.2-86.14.24Z"/><path class="cls-2" d="M178.3,240.55q-27.48,0-54.86,0a1.92,1.92,0,0,0-2.19,1.62c-3.52,11.12-7.11,22.22-10.68,33.32-.79,2.47-1.32,2.86-3.88,2.86H80.41c-3.18,0-3.63-.65-2.55-3.73q9.86-28.26,19.73-56.53,14.09-40.37,28.2-80.74a44.12,44.12,0,0,0,2.75-15.2c0-1.59.45-2,2.09-2,12.54,0,25.08,0,37.61,0A2.56,2.56,0,0,1,171,122q27.14,76,54.34,152c1.21,3.39,1,3.76-2.58,3.76H193.65c-2.32,0-2.71-.28-3.47-2.52q-5.73-16.77-11.47-33.54C178.59,241.27,178.44,240.9,178.3,240.55Zm-28.87-92.9c-5.3,21.21-12.41,41.86-18.61,62.84H168.9C162.39,189.46,155.91,168.57,149.43,147.65Z"/><path class="cls-2" d="M266.94,227c1.55,9.84,5.5,17.81,14.77,22.13a47.63,47.63,0,0,0,24.73,4c7.84-.68,15.6-1.71,23.07-4.29.8-.28,1.59-.59,2.58-1a11.73,11.73,0,0,1,.28,1.79c0,7.46,0,14.91,0,22.36a3.62,3.62,0,0,1-2.53,3.79A79.81,79.81,0,0,1,308.22,281a111.75,111.75,0,0,1-26.36-.2c-23.52-2.92-41.14-18.64-46.63-41.79-4.09-17.24-3-34.12,4.49-50.29,6.2-13.4,16-23.29,29.84-28.9a46.56,46.56,0,0,1,14.58-3c7.76-.52,15.47-.43,23.07,1.63,16,4.32,26.22,14.65,31.85,29.93a63.32,63.32,0,0,1,3.44,26.29c-.21,3.21-.47,6.42-.73,9.63-.14,1.7-.74,2.36-2.42,2.49-7,.56-14.05,1.23-21.09.28a25.7,25.7,0,0,0-3.17-.1H266.94Zm.19-22.07a3.44,3.44,0,0,0,.56.09c12.84,0,25.67,0,38.51-.06a15.59,15.59,0,0,0,3.54-.63c.94-.22,1.31-.82,1.31-1.87A19.11,19.11,0,0,0,307,190.49c-4.53-5.9-10.65-8.15-18-8C277.31,182.71,267.07,193,267.13,204.88Z"/></svg>