<svg id="Layer_2" data-name="Layer 2" xmlns="http://www.w3.org/2000/svg" viewBox="0 0 420 420"><defs><style>.cls-1{fill:none;stroke:#383838;stroke-linecap:round;stroke-linejoin:round;stroke-width:2.81px;}.cls-2{fill:#383838;}</style></defs><path class="cls-1" d="M209.89,381.42q-55.8,0-111.59,0c-28.5,0-51.79-16.19-60.8-42A65.72,65.72,0,0,1,34,317.58q0-107.74,0-215.49c0-34.13,24.09-60.42,58.07-63.5,1.26-.11,2.53-.11,3.81-.11H323.21A62.49,62.49,0,0,1,386,101.29q0,108.71,0,217.4c0,33.83-26.53,61.75-60.39,62.49-28.7.62-57.42.2-86.14.24Z"/><path class="cls-2" d="M243.58,328.91l26.84-15.59c.42.61.82,1.15,1.18,1.72,4.4,6.73,9.64,12.6,17.3,15.64,8.9,3.53,18,4,26.9.16,8.15-3.48,11.55-11.4,8.64-19.33a14,14,0,0,0-6.11-7.43c-4.83-2.8-9.83-5.34-14.86-7.77-8-3.85-16.14-7.34-24-11.33a51.3,51.3,0,0,1-14.74-11.4c-6.92-7.56-10.32-16.57-11.15-26.7-.65-8,.23-15.67,3.53-23a40.7,40.7,0,0,1,25.71-22.73c15.25-4.88,30.47-4.49,45.15,2.32,8.6,4,17.21,13,21.05,21.28l-25.76,16.56c-.79-1.23-1.5-2.38-2.25-3.51-3.28-4.9-7.36-8.77-13.35-10a23,23,0,0,0-11.21.15c-12.41,3.53-12.25,17.93-6.32,23.76,3.42,3.36,7.59,5.48,11.85,7.45,9.19,4.23,18.48,8.25,27.55,12.72a59.86,59.86,0,0,1,18.7,14.06c6.57,7.47,9.69,16.3,10.39,26.13a49.26,49.26,0,0,1-3,22.24c-5,12.4-14.38,20.11-26.66,24.59-10.38,3.78-21.14,4.68-32.11,3.83a69.7,69.7,0,0,1-30.3-9,58.73,58.73,0,0,1-22.17-22.93c-.22-.4-.42-.81-.62-1.22A3.64,3.64,0,0,1,243.58,328.91Z"/><path class="cls-2" d="M126.56,332.55l27-16.36c.4.63.73,1.21,1.11,1.75a118.5,118.5,0,0,0,7,9.74c3.63,4.22,8.61,5.63,14.06,5.51a25.53,25.53,0,0,0,4.1-.39c7.4-1.4,11.31-5.8,12.21-13.84a72.21,72.21,0,0,0,.4-8q0-54.21,0-108.41c0-2.55,0-2.55,2.62-2.55,9.62,0,19.25,0,28.87,0,1.48,0,1.95.36,1.94,1.91q-.06,55.74,0,111.49a61.29,61.29,0,0,1-4,22.84c-4.41,11.11-12.14,19-23.36,23-15.81,5.61-31.7,5.44-47.17-1.36C139.86,352.77,132,344,126.56,332.55Z"/></svg>