<svg id="Layer_2" data-name="Layer 2" xmlns="http://www.w3.org/2000/svg" viewBox="0 0 420 420"><defs><style>.cls-1{fill:none;stroke:#383838;stroke-linecap:round;stroke-linejoin:round;stroke-width:2.81px;}.cls-2{fill:#383838;}</style></defs><path class="cls-1" d="M209.89,381.42q-55.8,0-111.59,0c-28.5,0-51.79-16.19-60.8-42A65.72,65.72,0,0,1,34,317.58q0-107.74,0-215.49c0-34.13,24.09-60.42,58.07-63.5,1.26-.11,2.53-.11,3.81-.11H323.21A62.49,62.49,0,0,1,386,101.29q0,108.71,0,217.4c0,33.83-26.53,61.75-60.39,62.49-28.7.62-57.42.2-86.14.24Z"/><path class="cls-2" d="M241.86,144.37,230.43,135Q218,124.91,205.66,114.8c-4-3.25-5.4-7.35-3.86-11.29a12.94,12.94,0,0,1,7.58-7.36c7.19-2.94,14-2.33,20.26,2.53,29.07,22.4,58.24,44.67,87.26,67.14,13.62,10.54,24,23.66,30.08,40a80.86,80.86,0,0,1,5,23.15c1.74,27.19-7.93,49.91-27.24,68.66-14.74,14.3-32.52,22.85-52.68,26.3a105.12,105.12,0,0,1-18.54,1.74c-29.78-.3-55.61-10.32-76.2-32.35a84.36,84.36,0,0,1-21.13-40.2,64.22,64.22,0,0,1-1-17.56c0-.39,0-.79,0-1.48-.51.34-.88.54-1.19.79q-26.67,21.84-53.32,43.69c-5,4.12-10.57,6.76-17.14,6.73-7.74,0-13.87-4.69-15.39-11.71-1.25-5.73.37-10.93,3.76-15.47a36,36,0,0,1,6.78-6.78q50-38.59,100.19-77a2.92,2.92,0,0,0,1-1.29h-1.71q-27.3,0-54.6,0a18.79,18.79,0,0,1-9.44-2.09A11,11,0,0,1,110,155.27c3.19-5.5,8.13-8.51,14.17-9.81a31.46,31.46,0,0,1,6.57-.62q54.6,0,109.19,0h1.88Zm9.91,28.52c-1.83.16-5.24.32-8.61.79a57.23,57.23,0,0,0-8.07,1.77c-15,4.39-27.16,12.84-35.35,26.39a49.5,49.5,0,0,0-5.93,38.26c2.83,12,9.48,21.67,19.06,29.26,14.8,11.73,31.78,15.6,50.26,13A59.68,59.68,0,0,0,296,267c13.93-12.87,20.13-28.73,17.11-47.62-2.14-13.43-9.17-24.23-19.72-32.65C281.73,177.39,268.24,173.06,251.77,172.89Z"/><path class="cls-2" d="M293.16,226.61c-.36,10.71-5,19.5-13.66,26.21a38.72,38.72,0,0,1-24.67,8.26c-13.06-.11-24.07-4.9-32.15-15.51a32.32,32.32,0,0,1,1.31-40.4,38.82,38.82,0,0,1,28-13.69c11.82-.72,22.21,2.79,30.81,11C289.54,209,293,217,293.16,226.61Z"/></svg>