<svg width="64" height="64" viewBox="0 0 64 64" fill="none" xmlns="http://www.w3.org/2000/svg">
<path fill-rule="evenodd" clip-rule="evenodd" d="M24.0718 41.8877C22.879 42.5944 21.4869 43 20 43C15.5817 43 12 39.4183 12 35C12 30.5817 15.5817 27 20 27C21.061 27 22.0738 27.2065 23.0003 27.5816L23 27.5C23 21.1487 28.1487 16 34.5 16C40.6838 16 45.7276 20.8807 45.9893 27L46 27C49.3137 27 52 29.6863 52 33C52 36.3137 49.3137 39 46 39C44.4633 39 43.0615 38.4223 42 37.4722C42 37.4814 42 37.4907 42 37.5C42 42.7467 37.7467 47 32.5 47C28.8361 47 25.6567 44.9259 24.0718 41.8877Z" fill="#7B61FF"/>
</svg>
