<svg id="Layer_1" data-name="Layer 1" xmlns="http://www.w3.org/2000/svg" viewBox="0 0 115.28 59.58"><defs><style>.cls-1{fill:#fff;}</style></defs><path class="cls-1" d="M24.82,40.15a41.27,41.27,0,0,1-7-.6,21.18,21.18,0,0,1-6.56-2.26q-3-1.68-3-4.14a6.37,6.37,0,0,1,.2-1.36A7,7,0,0,1,9.8,29.43a25.91,25.91,0,0,1,6.44-5.57,71.14,71.14,0,0,1,10.33-5.51,102.22,102.22,0,0,1,12.28-4.5,79.39,79.39,0,0,1,12.38-2.67A17.67,17.67,0,0,1,53.38,11c.27,0,.62,0,1,.07s.65.25.65.55-.25.59-.76,1a17.31,17.31,0,0,1-2,1.22c-.87.45-1.82.93-2.87,1.43-1.23.58-2.44,1.19-3.65,1.8a35.38,35.38,0,0,0-3.11,1.78A4.84,4.84,0,0,0,41,20.32a.24.24,0,0,0,0,.13q0,.19.33.36a.4.4,0,0,1,.24.38.55.55,0,0,1,0,.17.4.4,0,0,1-.39.23.45.45,0,0,1-.16,0c-.57-.28-.85-.63-.85-1,0-.64.64-1.4,1.93-2.25a60.11,60.11,0,0,1,7-3.76l.21-.11c1.4-.68,2.58-1.26,3.53-1.75s1.44-.8,1.46-.92v0h-.11q-.45,0-2.79.3a79,79,0,0,0-12.24,2.64A102.76,102.76,0,0,0,26.91,19.1a72.69,72.69,0,0,0-10.22,5.45,24.9,24.9,0,0,0-6.22,5.39,5.5,5.5,0,0,0-1.33,3.22c0,1.33.85,2.46,2.55,3.4q5.08,2.76,13.15,2.77c.51,0,1.58,0,3.23-.09a50.5,50.5,0,0,0,6.77-.87A72.66,72.66,0,0,0,50,33.94q6.87-2.89,9.9-6a.37.37,0,0,1,.28-.13.44.44,0,0,1,.3.12.38.38,0,0,1,.12.28v0a.4.4,0,0,1-.11.26q-3.1,3.15-10.09,6.11A74,74,0,0,1,35,39.18,57.17,57.17,0,0,1,24.82,40.15Z"/><path class="cls-1" d="M62,37.31a3.58,3.58,0,0,1-.63-.08.68.68,0,0,1-.52-.49,2.15,2.15,0,0,1-.09-.71h0a.67.67,0,0,0-.06-.3c0-.09-.14-.13-.3-.14a.25.25,0,0,0-.11.05,11.38,11.38,0,0,1-1.61.73,5.13,5.13,0,0,1-1.76.41A1.08,1.08,0,0,1,56,36.4a.91.91,0,0,1-.18-.55,1.58,1.58,0,0,1,.59-1.14,2.91,2.91,0,0,1,1.1-.62,3.26,3.26,0,0,1,1.08-.17l.74,0a4.83,4.83,0,0,1,1.55.54.41.41,0,0,1,.24.39.73.73,0,0,1,.36.48,2.32,2.32,0,0,1,.06.55V36a2.37,2.37,0,0,0,0,.41c0,.12.18.18.47.18h.27a8.84,8.84,0,0,0,1.47-.39c.81-.26,2-.7,3.5-1.32a.28.28,0,0,1,.15,0,.4.4,0,0,1,.38.26.41.41,0,0,1,0,.16.36.36,0,0,1-.25.37A18.93,18.93,0,0,1,62,37.31Zm-5-1.3a4.74,4.74,0,0,0,1.62-.5L59.8,35a4.49,4.49,0,0,0-1.27-.2,2.3,2.3,0,0,0-.77.12,2.22,2.22,0,0,0-.81.44.77.77,0,0,0-.3.52C56.65,36,56.75,36,56.94,36Z"/><path class="cls-1" d="M68.52,40.6h-.21c-.4-.09-.6-.3-.6-.64s.52-1,1.55-1.74A21.54,21.54,0,0,1,72,36.61a15.94,15.94,0,0,0-2.25-.52l-.17,0c-.8-.17-1.19-.49-1.19-1s.29-.78.88-1.13a4.66,4.66,0,0,1,1.59-.61,3.16,3.16,0,0,1,.66-.07,2.29,2.29,0,0,1,.92.18.39.39,0,0,1,.24.38.25.25,0,0,1,0,.16.4.4,0,0,1-.37.24l-.18,0a1.38,1.38,0,0,0-.59-.12,3.47,3.47,0,0,0-1.79.57,1.3,1.3,0,0,0-.44.36.05.05,0,0,1,0,0v0c0,.06.2.12.52.19l.16,0a1.57,1.57,0,0,0,.27,0,11.79,11.79,0,0,1,2.59.69.9.9,0,0,1,.24.12,20.26,20.26,0,0,1,2.63-1A8.62,8.62,0,0,1,78,34.67a.4.4,0,0,1,.26.11.39.39,0,0,1,.13.27.44.44,0,0,1-.1.3.39.39,0,0,1-.29.13,14.13,14.13,0,0,0-4.33,1.23,1.2,1.2,0,0,1,.24.72c0,.6-.45,1.17-1.33,1.73a10.25,10.25,0,0,1-2.37,1.1A6.09,6.09,0,0,1,68.52,40.6Zm.1-.82a5.06,5.06,0,0,0,1.61-.37,10.64,10.64,0,0,0,1.92-.93,3.57,3.57,0,0,0,.8-.7.66.66,0,0,0,.15-.36.48.48,0,0,0-.2-.35,25,25,0,0,0-3.16,1.8,6.68,6.68,0,0,0-1,.85A.16.16,0,0,1,68.62,39.78Z"/><path class="cls-1" d="M80.19,37.32a2.57,2.57,0,0,1-1.32-.26.89.89,0,0,1-.44-.78,1.81,1.81,0,0,1,.88-1.34,6,6,0,0,1,3.82-1.2,2.4,2.4,0,0,1,.93.13c.28.13.42.29.42.47s-.31.62-.91.89a8.43,8.43,0,0,1-1.9.58,8,8,0,0,1-1.51.15c-.24,0-.48,0-.71,0a.68.68,0,0,0-.2.37h0a1.42,1.42,0,0,0,.91.2A29.69,29.69,0,0,0,88,34.7l.16,0a.64.64,0,0,1,.2,0,.35.35,0,0,1,.19.36.37.37,0,0,1-.28.39A29.62,29.62,0,0,1,80.19,37.32Zm.38-2.19A9.68,9.68,0,0,0,83,34.57,5.45,5.45,0,0,0,80.57,35.13Z"/><path class="cls-1" d="M89.61,48.56a2.43,2.43,0,0,1-1-.19A1.43,1.43,0,0,1,87.69,47a2.45,2.45,0,0,1,.13-.78,6.47,6.47,0,0,1,2.12-2.85,55.74,55.74,0,0,1,8.21-4.93,5.9,5.9,0,0,0-2.43-3.33h0c-.08,0-.23.14-.47.42a26,26,0,0,0-1.83,2.41l0,0a36.12,36.12,0,0,1-2.23,3,5.12,5.12,0,0,1-2.27,1.71,1.9,1.9,0,0,1-.4,0,1,1,0,0,1-.75-.3,2.07,2.07,0,0,1-.45-1.5,7.35,7.35,0,0,1,.15-1.4,14.72,14.72,0,0,1,1.08-3.18c.6-1.27,1.09-1.9,1.47-1.9a.35.35,0,0,1,.37.22.37.37,0,0,1,.05.2.36.36,0,0,1-.24.35,4,4,0,0,0-1,1.63,16.33,16.33,0,0,0-.9,2.85,6.39,6.39,0,0,0-.15,1.29c0,.61.14.92.43.92l.18,0a4.62,4.62,0,0,0,1.93-1.57c.71-.85,1.4-1.78,2.09-2.77l.94-1.31c.9-1.26,1.61-1.89,2.15-1.89a.79.79,0,0,1,.44.14,7,7,0,0,1,2.7,3.62q2.49-1.24,4.36-2.1c1.8-.82,2.73-1.23,2.8-1.23a.39.39,0,0,1,.37.24.43.43,0,0,1,0,.19.45.45,0,0,1,0,.17c0,.08-.15.17-.37.27q-2.6,1.09-7,3.31a3.9,3.9,0,0,1,0,.59,5.74,5.74,0,0,1-.28,1.77,8.68,8.68,0,0,1-1.39,2.68,13.33,13.33,0,0,1-3,2.89A8.49,8.49,0,0,1,89.61,48.56Zm0-.82A7.75,7.75,0,0,0,94,46.14a12.64,12.64,0,0,0,2.79-2.68A8.29,8.29,0,0,0,98.05,41a5.27,5.27,0,0,0,.23-1.51V39.3A51,51,0,0,0,90.46,44a5.65,5.65,0,0,0-1.87,2.43,2.13,2.13,0,0,0-.08.53C88.51,47.48,88.89,47.74,89.64,47.74Z"/></svg>