<svg id="Layer_1" data-name="Layer 1" xmlns="http://www.w3.org/2000/svg" viewBox="0 0 240 240"><defs><style>.cls-1{font-size:12px;font-family:Gilroy-SemiBold, Gilroy;font-weight:600;}</style></defs><text class="cls-1" transform="matrix(0.99, 0.1, -0.1, 0.99, 125.93, 30.15)">T</text><text class="cls-1" transform="translate(133.9 31.03) rotate(11.05)">h</text><text class="cls-1" transform="matrix(0.96, 0.28, -0.28, 0.96, 142.11, 32.7)">e</text><text class="cls-1" transform="matrix(0.94, 0.35, -0.35, 0.94, 150.29, 35.24)"> </text><text class="cls-1" transform="translate(154.56 36.77) rotate(25.44)">w</text><text class="cls-1" transform="translate(164.01 41.4) rotate(31.53)">o</text><text class="cls-1" transform="translate(171.38 46.06) rotate(36.13)">r</text><text class="cls-1" transform="matrix(0.77, 0.63, -0.63, 0.77, 175.96, 49.49)">l</text><text class="cls-1" transform="matrix(0.72, 0.69, -0.69, 0.72, 179.36, 52.24)">d</text><text class="cls-1" transform="translate(185.85 58.64) rotate(48.01)"> </text><text class="cls-1" transform="translate(188.91 62.1) rotate(50.87)">i</text><text class="cls-1" transform="translate(191.64 65.47) rotate(54.48)">s</text><text class="cls-1" transform="matrix(0.53, 0.85, -0.85, 0.53, 195.71, 71.33)"> </text><text class="cls-1" transform="translate(198.11 75.2) rotate(62.11)">y</text><text class="cls-1" transform="matrix(0.39, 0.92, -0.92, 0.39, 201.61, 81.9)">o</text><text class="cls-1" transform="translate(204.92 89.97) rotate(72.65)">u</text><text class="cls-1" transform="translate(207.31 98.02) rotate(77.15)">r</text><text class="cls-1" transform="translate(208.52 103.59) rotate(80.46)"> </text><text class="cls-1" transform="matrix(0.09, 1, -1, 0.09, 209.3, 108.08)">o</text><text class="cls-1" transform="translate(210 116.55) rotate(89.86)">y</text><text class="cls-1" transform="matrix(-0.08, 1, -1, -0.08, 209.95, 123.98)">s</text><text class="cls-1" transform="translate(209.37 130.82) rotate(98.4)">t</text><text class="cls-1" transform="translate(208.51 136.61) rotate(102.81)">e</text><text class="cls-1" transform="matrix(-0.3, 0.95, -0.95, -0.3, 206.51, 144.9)">r</text><text class="cls-1" transform="translate(204.75 150.33) rotate(110.59)"> </text><text class="cls-1" transform="translate(203.09 154.64) rotate(113.55)"> </text><text class="cls-1" transform="translate(201.2 158.86) rotate(116.51)"> </text><text class="cls-1" transform="translate(199.11 162.97) rotate(119.47)"> </text><text class="cls-1" transform="translate(196.87 166.94) rotate(123.51)">T</text><text class="cls-1" transform="matrix(-0.63, 0.78, -0.78, -0.63, 192.38, 173.6)">h</text><text class="cls-1" transform="translate(187.08 180.1) rotate(134.14)">e</text><text class="cls-1" transform="translate(181.03 186.14) rotate(138.31)"> </text><text class="cls-1" transform="translate(177.68 189.22) rotate(143.16)">w</text><text class="cls-1" transform="matrix(-0.86, 0.51, -0.51, -0.86, 169.19, 195.42)">o</text><text class="cls-1" transform="translate(161.64 199.79) rotate(153.72)">r</text><text class="cls-1" transform="translate(156.49 202.26) rotate(156.93)">l</text><text class="cls-1" transform="matrix(-0.95, 0.32, -0.32, -0.95, 152.49, 204)">d</text><text class="cls-1" transform="translate(143.8 206.8) rotate(165.6)"> </text><text class="cls-1" transform="translate(139.32 207.91) rotate(168.49)">i</text><text class="cls-1" transform="translate(135.06 208.77) rotate(172.16)">s</text><text class="cls-1" transform="translate(127.99 209.65) rotate(175.92)"> </text><text class="cls-1" transform="translate(123.43 209.97) rotate(179.88)">y</text><text class="cls-1" transform="matrix(-1, -0.09, 0.09, -1, 115.89, 209.95)">o</text><text class="cls-1" transform="translate(107.25 209.16) rotate(-168.95)">u</text><text class="cls-1" transform="matrix(-0.97, -0.25, 0.25, -0.97, 98.97, 207.49)">r</text><text class="cls-1" transform="matrix(-0.95, -0.31, 0.31, -0.95, 93.47, 205.98)"> </text><text class="cls-1" transform="translate(89.12 204.58) rotate(-157.71)">o</text><text class="cls-1" transform="matrix(-0.89, -0.46, 0.46, -0.89, 81.29, 201.28)">y</text><text class="cls-1" transform="translate(74.74 197.81) rotate(-148.02)">s</text><text class="cls-1" transform="translate(68.94 194.12) rotate(-143.93)">t</text><text class="cls-1" transform="matrix(-0.76, -0.65, 0.65, -0.76, 64.22, 190.68)">e</text><text class="cls-1" transform="translate(57.8 185.03) rotate(-134.91)">r</text><text class="cls-1" transform="matrix(-0.66, -0.75, 0.75, -0.66, 53.81, 180.94)"> </text><text class="cls-1" transform="translate(50.78 177.47) rotate(-128.72)"> </text><text class="cls-1" transform="translate(47.93 173.84) rotate(-125.79)"> </text><text class="cls-1" transform="translate(45.26 170.07) rotate(-122.87)"> </text><text class="cls-1" transform="translate(42.77 166.23) rotate(-118.87)">T</text><text class="cls-1" transform="translate(38.95 159.18) rotate(-113.67)">h</text><text class="cls-1" transform="translate(35.65 151.48) rotate(-108.29)">e</text><text class="cls-1" transform="matrix(-0.24, -0.97, 0.97, -0.24, 33.09, 143.31)"> </text><text class="cls-1" transform="translate(31.92 138.93) rotate(-99.19)">w</text><text class="cls-1" transform="translate(30.36 128.52) rotate(-93.1)">o</text><text class="cls-1" transform="translate(30.01 119.79) rotate(-88.5)">r</text><text class="cls-1" transform="matrix(0.08, -1, 1, 0.08, 30.22, 114.1)">l</text><text class="cls-1" transform="matrix(0.16, -0.99, 0.99, 0.16, 30.55, 109.74)">d</text><text class="cls-1" transform="translate(32.12 100.75) rotate(-76.75)"> </text><text class="cls-1" transform="translate(33.22 96.27) rotate(-73.9)">i</text><text class="cls-1" transform="translate(34.43 92.08) rotate(-70.24)">s</text><text class="cls-1" transform="matrix(0.4, -0.92, 0.92, 0.4, 36.93, 85.41)"> </text><text class="cls-1" transform="matrix(0.46, -0.89, 0.89, 0.46, 38.74, 81.23)">y</text><text class="cls-1" transform="matrix(0.54, -0.84, 0.84, 0.54, 42.26, 74.54)">o</text><text class="cls-1" transform="translate(47.02 67.26) rotate(-51.93)">u</text><text class="cls-1" transform="translate(52.29 60.72) rotate(-47.45)">r</text><text class="cls-1" transform="translate(56.18 56.56) rotate(-44.18)"> </text><text class="cls-1" transform="translate(59.46 53.35) rotate(-39.95)">o</text><text class="cls-1" transform="matrix(0.82, -0.57, 0.57, 0.82, 66.01, 47.97)">y</text><text class="cls-1" transform="matrix(0.86, -0.51, 0.51, 0.86, 72.15, 43.76)">s</text><text class="cls-1" transform="translate(78.1 40.35) rotate(-26.35)">t</text><text class="cls-1" transform="translate(83.34 37.76) rotate(-21.87)">e</text><text class="cls-1" transform="translate(91.3 34.69) rotate(-17.35)">r</text><circle cx="109.85" cy="27.86" r="2.26"/><circle cx="204.24" cy="159.41" r="2.26"/><circle cx="45.08" cy="175.35" r="2.26"/></svg>